<svg width="32" height="32" viewBox="0 0 32 32" fill="none" xmlns="http://www.w3.org/2000/svg">
  <rect width="32" height="32" rx="7" fill="#0f172a"/>
  <g transform="translate(2, 1) scale(0.0147)">
    <path style="fill:white;" d="M1234.98,197.252c-32.308-26.76-62.705-56.488-105.375-68.263
	C968.147,73.934,821.198,230.017,865.656,376.784c60.837,341.486,68.396,683.989,29.952,1026.745
	c-302.093-74.69-642.63,218.811-567.017,532.206l0.129,0.532c0.206,0.848,0.415,1.696,0.626,2.544l0.18,0.715
	c0.638,2.533,1.303,5.067,1.996,7.603l0.324,1.18c0.188,0.681,0.379,1.361,0.571,2.042l0.398,1.397
	c0.191,0.669,0.383,1.336,0.578,2.004l0.426,1.442c0.307,1.036,0.617,2.073,0.934,3.109c0.194,0.639,0.389,1.277,0.587,1.916
	c0.174,0.561,0.352,1.121,0.529,1.682c0.193,0.615,0.388,1.229,0.585,1.844c0.17,0.532,0.342,1.064,0.515,1.595
	c0.227,0.699,0.456,1.397,0.688,2.095l0.458,1.383c0.369,1.102,0.743,2.202,1.123,3.304l0.371,1.062
	c0.288,0.83,0.579,1.66,0.874,2.49l0.453,1.267c0.29,0.807,0.583,1.615,0.879,2.423l0.407,1.113
	c0.431,1.168,0.866,2.334,1.309,3.501l0.009,0.022c1.254,3.305,2.558,6.609,3.91,9.913l0.072,0.176
	c0.887,2.167,1.797,4.333,2.727,6.5l0.054,0.125c0.448,1.043,0.901,2.085,1.359,3.128l0.156,0.353
	c0.933,2.12,1.886,4.24,2.861,6.358l0.086,0.189c0.476,1.033,0.956,2.066,1.442,3.099l0.185,0.392c0.98,2.08,1.979,4.16,2.999,6.239
	l0.161,0.329c0.5,1.018,1.005,2.036,1.516,3.054l0.196,0.39c0.519,1.033,1.041,2.067,1.571,3.099
	c6.851,11.858,14.057,23.176,21.591,33.966c1.076,1.542,2.159,3.073,3.249,4.592c3.077,4.292,6.206,8.498,9.386,12.618
	c6.361,8.241,12.927,16.143,19.682,23.709c5.067,5.675,10.24,11.16,15.516,16.461c7.034,7.066,14.248,13.802,21.628,20.211
	c1.229,1.069,2.465,2.128,3.704,3.178c2.478,2.1,4.975,4.165,7.49,6.193c0.629,0.507,1.258,1.012,1.889,1.514
	c7.57,6.032,15.299,11.74,23.171,17.131c7.217,4.942,14.556,9.617,22.005,14.029c2.032,1.204,4.071,2.387,6.119,3.552
	c1.366,0.776,2.734,1.543,4.107,2.302c3.43,1.897,6.884,3.741,10.358,5.531c0.695,0.358,1.39,0.714,2.087,1.068
	c1.392,0.708,2.789,1.406,4.188,2.097c1.399,0.691,2.801,1.371,4.207,2.045c6.327,3.03,12.718,5.888,19.168,8.576
	c0.716,0.299,1.434,0.596,2.152,0.89c2.693,1.104,5.396,2.179,8.108,3.224c0.904,0.349,1.81,0.695,2.716,1.036
	c3.625,1.367,7.267,2.685,10.926,3.948c1.463,0.506,2.928,1.003,4.397,1.493c6.607,2.201,13.266,4.235,19.968,6.105
	c3.351,0.936,6.714,1.83,10.086,2.683c1.125,0.284,2.25,0.564,3.376,0.839c1.502,0.367,3.006,0.726,4.512,1.077
	c9.789,2.281,19.662,4.223,29.597,5.833c0.764,0.124,1.529,0.246,2.294,0.366c2.295,0.36,4.595,0.701,6.896,1.025
	c1.535,0.217,3.071,0.425,4.608,0.625c5.38,0.702,10.776,1.31,16.188,1.823c0.773,0.073,1.546,0.144,2.319,0.213
	c2.32,0.208,4.644,0.399,6.969,0.572c1.55,0.116,3.101,0.224,4.653,0.325c2.327,0.15,4.658,0.284,6.99,0.4
	c1.555,0.078,3.111,0.147,4.667,0.21c2.335,0.094,4.67,0.17,7.008,0.229c1.558,0.04,3.117,0.072,4.678,0.096
	c3.118,0.049,6.239,0.069,9.362,0.058c0.782-0.003,1.565-0.008,2.347-0.014c1.561-0.013,3.125-0.034,4.688-0.061
	c7.08-0.126,14.168-0.404,21.26-0.833c1.519-0.091,3.038-0.19,4.558-0.295c1.506-0.105,3.011-0.217,4.517-0.334
	c0.91-0.072,1.819-0.146,2.728-0.222c3.064-0.257,6.129-0.542,9.191-0.853c0.782-0.08,1.565-0.161,2.347-0.245
	c0.871-0.094,1.743-0.188,2.614-0.286c1.383-0.154,2.767-0.314,4.15-0.48c1.747-0.209,3.494-0.428,5.241-0.655
	c1.379-0.178,2.757-0.364,4.135-0.554c4-0.553,7.998-1.151,11.99-1.798c2.206-0.356,4.409-0.727,6.611-1.113
	c3.252-0.567,6.5-1.165,9.743-1.793c0.778-0.151,1.555-0.303,2.332-0.457c1.555-0.309,3.107-0.624,4.661-0.946
	c3.104-0.644,6.205-1.315,9.301-2.015c2.324-0.525,4.643-1.065,6.96-1.62c0.774-0.185,1.545-0.373,2.316-0.561
	c12.353-3.017,24.629-6.471,36.796-10.351c0.76-0.242,1.521-0.487,2.282-0.732c1.518-0.493,3.036-0.991,4.552-1.496
	c0.758-0.252,1.516-0.506,2.273-0.762c12.113-4.091,24.108-8.604,35.956-13.526c0.74-0.308,1.481-0.617,2.219-0.928
	c11.09-4.662,22.047-9.684,32.845-15.054c0.72-0.358,1.44-0.717,2.157-1.078c1.437-0.723,2.871-1.451,4.303-2.186
	c0.715-0.367,1.429-0.736,2.143-1.107c3.57-1.852,7.123-3.742,10.656-5.671c0.706-0.386,1.411-0.773,2.116-1.161
	c2.115-1.166,4.223-2.346,6.323-3.54c0.701-0.398,1.399-0.797,2.097-1.198c2.794-1.604,5.575-3.23,8.343-4.882
	c0.692-0.413,1.383-0.828,2.073-1.243c1.379-0.832,2.757-1.669,4.131-2.512c1.374-0.843,2.743-1.694,4.109-2.549
	c5.465-3.422,10.873-6.938,16.219-10.547c0.668-0.451,1.337-0.904,2.003-1.358c3.332-2.27,6.641-4.577,9.924-6.92
	c0.656-0.468,1.311-0.939,1.966-1.41c1.309-0.943,2.615-1.891,3.915-2.846c1.302-0.954,2.599-1.913,3.891-2.88
	c17.452-13.037,34.145-27.11,49.92-42.16c2.339-2.23,4.655-4.481,6.95-6.753c2.872-2.84,5.709-5.714,8.515-8.621
	c0.56-0.581,1.121-1.163,1.678-1.748c3.91-4.087,7.751-8.238,11.527-12.453c0.538-0.602,1.076-1.205,1.613-1.81
	c1.072-1.21,2.14-2.424,3.202-3.643c1.061-1.22,2.117-2.445,3.167-3.674c6.827-7.994,13.411-16.203,19.736-24.62
	c0.973-1.295,1.939-2.595,2.9-3.899c0.961-1.305,1.915-2.615,2.864-3.93c0.474-0.657,0.946-1.315,1.417-1.975
	c4.711-6.597,9.262-13.317,13.649-20.154c0.438-0.684,0.874-1.369,1.31-2.055c3.048-4.803,6.014-9.664,8.895-14.582
	c1.647-2.811,3.265-5.639,4.857-8.487c0.794-1.423,1.583-2.852,2.365-4.285c0.39-0.716,0.779-1.433,1.167-2.152
	c1.548-2.875,3.069-5.769,4.56-8.679c0.745-1.456,1.483-2.917,2.215-4.381c1.828-3.662,3.609-7.351,5.345-11.069
	c0.348-0.743,0.693-1.488,1.037-2.234c1.374-2.983,2.718-5.983,4.03-9.001c0.329-0.755,0.655-1.51,0.979-2.267
	c3.245-7.566,6.3-15.243,9.155-23.024c0.856-2.335,1.694-4.679,2.515-7.032c1.094-3.137,2.156-6.293,3.184-9.464
	c0.514-1.586,1.021-3.176,1.519-4.77c1.245-3.984,2.439-7.996,3.58-12.032c0.685-2.422,1.351-4.852,1.998-7.292
	c1.293-4.88,2.51-9.796,3.648-14.748c1.329-5.777,2.551-11.603,3.663-17.475c0.477-2.517,0.934-5.043,1.371-7.577
	c1.164-6.757,2.183-13.578,3.054-20.456c0.654-5.16,1.224-10.353,1.709-15.579c1.133-12.194,1.802-24.568,1.984-37.114l-0.151,0.148
	l-0.221,0.214l-0.115,0.111l-0.262,0.255l-0.161,0.16l-0.065,0.067c0-2.58,1.381-4.724,1.3-7.335
	c-0.096-12.815-0.341-25.63-0.723-38.444l-0.006-0.167c-11.65-390.065-150.994-779.746-153.939-1169.653l-0.105,0.191
	c-0.058-7.499-0.067-14.997-0.022-22.495c1.058-14.132,16.866-24.21,32.226-9.672c11.094,8.352,22.92,17.038,34.706,25.735
	c111.634,106.829,189.213,222.781,212.418,392.437l0.528-0.052c0.244,6.432,1.383,13.259,1.342,19.537
	c-1.261,44.733,30.56,84.732,75.953,92.442c67.948,12.364,109.563-49.061,111.31-110.466c16.296-95.998,27.35-201.019-2.031-314.563
	C1527.253,415.228,1376.118,298.808,1234.98,197.252z"/>
    <path style="fill:white;opacity:0.7;" d="M1142.55,950.555c12.308,24.614,12.308,61.535,0,86.149
	c-36.921,55.382-123.071,67.69-135.379,141.533c-30.768,159.993,73.843,258.45,159.994,381.521
	c92.304,129.225-49.228,276.911-147.686,393.829c-86.151,104.61-252.298,153.839-356.907,67.69
	c-49.229-43.075,0-135.379-24.614-203.069c-12.308-24.614-43.076-24.614-61.536-12.307c-43.075,36.921-98.458,98.457-141.532,55.381
	c-65.735-68.864-72.488-153.646-49.551-236.538c-66.207,103.797-90.359,231.334-41.807,359.231l0.009,0.022
	c1.254,3.305,2.558,6.609,3.91,9.913l0.072,0.176c0.887,2.167,1.797,4.333,2.727,6.5l0.054,0.125
	c0.448,1.043,0.901,2.085,1.359,3.128l0.156,0.353c0.933,2.12,1.886,4.24,2.861,6.358l0.086,0.189
	c0.476,1.033,0.956,2.066,1.442,3.099l0.185,0.392c0.98,2.08,1.979,4.16,2.999,6.239l0.161,0.329c0.5,1.018,1.005,2.036,1.516,3.054
	l0.196,0.39c0.519,1.033,1.042,2.067,1.571,3.099c7.83,13.552,16.123,26.399,24.839,38.559c3.077,4.292,6.206,8.498,9.386,12.618
	c6.361,8.241,12.927,16.143,19.682,23.709c5.067,5.675,10.24,11.16,15.516,16.461c7.034,7.066,14.248,13.802,21.628,20.211
	c1.229,1.068,2.465,2.128,3.704,3.178c2.478,2.1,4.975,4.165,7.49,6.193c0.629,0.507,1.258,1.012,1.889,1.514
	c7.57,6.032,15.299,11.74,23.171,17.131c7.217,4.942,14.556,9.617,22.005,14.029c2.032,1.204,4.071,2.387,6.119,3.552
	c1.366,0.776,2.734,1.543,4.107,2.302c3.43,1.897,6.884,3.741,10.358,5.531c0.695,0.358,1.39,0.714,2.087,1.068
	c1.392,0.708,2.789,1.406,4.188,2.097c1.399,0.691,2.801,1.371,4.207,2.045c6.327,3.03,12.718,5.888,19.168,8.576
	c0.716,0.299,1.434,0.596,2.152,0.89c3.59,1.472,7.199,2.892,10.824,4.26c3.625,1.367,7.267,2.685,10.926,3.948
	c1.463,0.506,2.928,1.003,4.397,1.493c6.607,2.201,13.266,4.235,19.968,6.105c4.469,1.248,8.956,2.421,13.462,3.523
	c1.502,0.367,3.006,0.726,4.512,1.077c9.789,2.281,19.662,4.223,29.597,5.833c0.764,0.124,1.529,0.246,2.294,0.366
	c2.295,0.36,4.595,0.701,6.896,1.025c1.535,0.217,3.071,0.425,4.608,0.625c6.149,0.803,12.319,1.482,18.508,2.036
	c2.32,0.208,4.644,0.399,6.969,0.572c1.55,0.116,3.101,0.224,4.653,0.325c2.327,0.15,4.658,0.283,6.99,0.4
	c1.555,0.078,3.111,0.147,4.667,0.21c2.335,0.094,4.67,0.17,7.008,0.229c1.558,0.04,3.117,0.072,4.678,0.096
	c3.118,0.049,6.239,0.069,9.362,0.058c0.782-0.003,1.565-0.008,2.347-0.014c1.561-0.013,3.125-0.034,4.688-0.061
	c7.08-0.126,14.168-0.404,21.26-0.833c1.519-0.091,3.038-0.19,4.558-0.295c1.506-0.105,3.011-0.217,4.517-0.334
	c0.91-0.072,1.819-0.146,2.728-0.222c3.064-0.257,6.128-0.542,9.191-0.853c0.782-0.08,1.565-0.161,2.347-0.245
	c0.871-0.094,1.743-0.188,2.614-0.286c1.383-0.154,2.767-0.314,4.15-0.48c1.747-0.209,3.494-0.428,5.241-0.655
	c1.379-0.178,2.757-0.364,4.135-0.554c4-0.553,7.998-1.151,11.99-1.798c2.206-0.356,4.409-0.727,6.611-1.113
	c3.252-0.567,6.5-1.165,9.743-1.793c0.778-0.151,1.555-0.303,2.332-0.457c1.555-0.309,3.107-0.624,4.661-0.946
	c3.104-0.644,6.205-1.315,9.301-2.015c2.324-0.525,4.643-1.065,6.96-1.62c0.774-0.185,1.545-0.373,2.316-0.561
	c12.353-3.017,24.629-6.471,36.796-10.351c0.76-0.242,1.521-0.487,2.282-0.732c1.518-0.493,3.036-0.991,4.552-1.496
	c0.758-0.252,1.516-0.506,2.273-0.762c12.113-4.091,24.108-8.604,35.956-13.526c0.74-0.308,1.481-0.617,2.219-0.928
	c11.09-4.662,22.047-9.684,32.845-15.054c0.72-0.358,1.44-0.717,2.157-1.078c1.437-0.723,2.871-1.451,4.303-2.186
	c0.715-0.367,1.429-0.736,2.143-1.107c3.57-1.852,7.123-3.742,10.656-5.671c0.706-0.386,1.411-0.773,2.116-1.161
	c2.115-1.166,4.223-2.346,6.323-3.54c0.701-0.398,1.399-0.797,2.097-1.198c2.794-1.604,5.575-3.23,8.343-4.882
	c0.692-0.413,1.383-0.828,2.073-1.243c1.379-0.832,2.757-1.669,4.131-2.512c1.374-0.843,2.743-1.694,4.109-2.549
	c5.465-3.422,10.873-6.938,16.219-10.547c0.668-0.451,1.337-0.904,2.003-1.358c3.332-2.27,6.641-4.577,9.924-6.92
	c0.656-0.468,1.311-0.939,1.966-1.41c1.309-0.943,2.615-1.891,3.915-2.846c1.302-0.954,2.599-1.913,3.891-2.88
	c17.452-13.037,34.145-27.11,49.92-42.16c2.339-2.23,4.655-4.481,6.95-6.753c2.872-2.84,5.709-5.714,8.515-8.621
	c0.56-0.581,1.121-1.163,1.678-1.748c3.91-4.087,7.751-8.238,11.527-12.453c0.538-0.602,1.076-1.205,1.613-1.81
	c1.072-1.21,2.14-2.424,3.202-3.643c1.061-1.22,2.117-2.445,3.167-3.674c6.827-7.994,13.411-16.203,19.736-24.62
	c0.973-1.295,1.939-2.595,2.9-3.899c0.961-1.305,1.915-2.615,2.864-3.93c0.474-0.657,0.946-1.315,1.417-1.975
	c4.711-6.597,9.262-13.317,13.649-20.154c0.438-0.684,0.874-1.369,1.31-2.055c3.048-4.803,6.014-9.664,8.895-14.582
	c1.647-2.811,3.265-5.639,4.857-8.487c0.794-1.423,1.583-2.852,2.365-4.285c0.39-0.716,0.779-1.433,1.167-2.152
	c1.548-2.875,3.069-5.769,4.56-8.679c0.745-1.456,1.483-2.917,2.215-4.381c1.828-3.662,3.609-7.351,5.345-11.069
	c0.348-0.743,0.693-1.488,1.037-2.234c1.374-2.983,2.718-5.983,4.03-9.001c0.329-0.755,0.655-1.51,0.979-2.267
	c3.245-7.566,6.3-15.243,9.155-23.024c0.856-2.335,1.694-4.679,2.515-7.032c1.094-3.137,2.156-6.293,3.184-9.464
	c0.514-1.586,1.021-3.176,1.519-4.77c1.245-3.984,2.439-7.996,3.58-12.032c0.685-2.422,1.351-4.852,1.998-7.292
	c1.293-4.88,2.51-9.796,3.648-14.748c1.329-5.777,2.551-11.603,3.663-17.475c0.477-2.517,0.934-5.043,1.371-7.577
	c1.164-6.757,2.183-13.578,3.054-20.456c0.654-5.16,1.224-10.353,1.709-15.579c1.133-12.194,1.802-24.568,1.984-37.114l-0.151,0.148
	l-0.335,0.325l-0.262,0.255l-0.226,0.226c0-2.58,1.381-4.724,1.3-7.335c-0.096-12.815-0.341-25.63-0.723-38.444l-0.006-0.167
	c-11.65-390.065-150.994-779.746-153.939-1169.653l-0.105,0.191C1030.635,668.749,1083.732,815.27,1142.55,950.555z"/>
  </g>
</svg>
